<?xml version="1.0" standalone="no"?>
<!DOCTYPE svg PUBLIC "-//W3C//DTD SVG 20010904//EN"
 "http://www.w3.org/TR/2001/REC-SVG-20010904/DTD/svg10.dtd">
<svg version="1.0" xmlns="http://www.w3.org/2000/svg"
 width="460.000000pt" height="460.000000pt" viewBox="0 0 460.000000 460.000000"
 preserveAspectRatio="xMidYMid meet">
<metadata>
Created by potrace 1.14, written by Peter Selinger 2001-2017
</metadata>
<g transform="translate(0.000000,460.000000) scale(0.100000,-0.100000)"
fill="#000000" stroke="none">
<path d="M2270 4076 c-115 -19 -168 -32 -242 -60 -294 -110 -489 -296 -584
-556 -24 -65 -28 -93 -30 -207 -2 -73 -10 -158 -18 -190 -27 -106 -49 -303
-34 -303 4 0 15 12 25 26 10 14 28 38 41 54 12 16 31 53 41 82 46 129 104 234
167 301 51 53 64 49 64 -21 0 -87 66 -213 104 -199 7 3 16 16 20 30 13 53 80
155 138 208 75 70 139 105 253 137 81 24 108 26 265 27 151 0 189 -3 275 -24
188 -45 345 -122 439 -216 96 -95 159 -260 172 -456 4 -64 12 -106 21 -114 8
-8 20 -31 27 -52 l13 -38 14 90 c30 193 11 447 -43 592 -17 46 -18 57 -7 88
11 29 11 47 -1 103 -7 37 -14 94 -15 127 -2 103 -15 162 -47 212 -27 42 -32
46 -39 28 -4 -11 -8 -31 -8 -43 -1 -21 -6 -18 -39 25 -129 162 -357 294 -582
337 -120 23 -288 28 -390 12z"/>
<path d="M1690 2731 c-54 -9 -105 -34 -114 -57 -9 -24 -1 -28 26 -12 34 19
217 16 298 -6 84 -23 203 -63 238 -82 15 -7 41 -14 58 -14 26 0 33 5 37 26 6
34 -28 55 -153 93 -162 50 -295 67 -390 52z"/>
<path d="M2749 2560 c-151 -15 -189 -22 -211 -40 -19 -15 -21 -22 -12 -37 15
-25 67 -27 161 -7 176 37 404 34 483 -6 43 -22 57 -15 34 19 -47 67 -217 94
-455 71z"/>
<path d="M1730 2551 c-57 -19 -110 -53 -144 -93 -50 -58 -84 -176 -56 -193 6
-3 13 2 16 12 34 109 93 173 197 212 38 15 34 6 -14 -26 -60 -39 -90 -97 -90
-174 -1 -77 13 -117 43 -124 13 -2 73 -16 135 -30 61 -14 123 -25 137 -25 36
0 81 60 94 123 20 99 -14 181 -95 233 -50 31 -53 37 -16 28 78 -20 152 -91
189 -182 23 -55 24 -56 24 -22 0 44 -48 146 -86 182 -51 47 -140 80 -229 84
-44 2 -91 0 -105 -5z m75 -182 c0 -30 -3 -34 -28 -37 -53 -6 -77 43 -36 72 34
23 64 6 64 -35z"/>
<path d="M2734 2331 c-75 -21 -104 -43 -143 -106 -42 -69 -39 -79 5 -22 20 26
39 47 41 47 3 0 2 -15 -1 -34 -9 -47 9 -118 35 -138 18 -16 44 -18 183 -18 88
0 166 4 172 8 23 16 37 73 31 132 -3 33 -3 60 -1 60 3 0 21 -12 40 -27 35 -28
64 -79 64 -114 0 -28 27 -23 34 6 14 55 -23 132 -85 176 -68 48 -253 63 -375
30z m60 -37 c20 -20 20 -33 -1 -56 -20 -22 -37 -23 -57 -2 -23 22 -20 53 7 64
31 12 34 12 51 -6z"/>
<path d="M2426 1775 c-23 -17 -98 -20 -127 -4 -11 6 -25 9 -32 6 -19 -6 29
-28 70 -31 44 -4 91 8 112 29 19 19 2 19 -23 0z"/>
<path d="M2525 1569 c-210 -10 -289 -11 -375 -4 -64 5 -71 4 -50 -7 35 -17
520 -24 573 -8 21 6 35 15 32 20 -4 6 -12 9 -18 8 -7 -1 -79 -5 -162 -9z"/>
<path d="M2328 983 c7 -3 16 -2 19 1 4 3 -2 6 -13 5 -11 0 -14 -3 -6 -6z"/>
</g>
</svg>
